<svg version="1.1" xmlns="http://www.w3.org/2000/svg" viewBox="0 0 662 584" width="662" height="584">
  <!-- svg-source:excalidraw -->
  
  <defs>
    <style>
      @font-face {
        font-family: "Virgil";
        src: url("https://unpkg.com/@zsviczian/excalidraw@0.12.0-obsidian-10/dist/excalidraw-assets/Virgil.woff2");
      }
      @font-face {
        font-family: "Cascadia";
        src: url("https://unpkg.com/@zsviczian/excalidraw@0.12.0-obsidian-10/dist/excalidraw-assets/Cascadia.woff2");
      }
    </style>
  </defs>
  <g stroke-linecap="round" transform="translate(10 10) rotate(0 112.80001831054688 128.4000244140625)"><path d="M0.23 128.73 C0.23 128.73, 0.23 128.73, 0.23 128.73 M0.23 128.73 C0.23 128.73, 0.23 128.73, 0.23 128.73 M10.24 139.16 C45.35 102.98, 76.05 63.92, 123.73 8.49 M10.64 140.65 C43.57 104.09, 74.78 67.87, 124.55 10.23 M22.46 152.32 C57.3 111.79, 95.51 67.06, 136.84 20.43 M21.2 154.43 C62.73 104.65, 104.21 56.79, 136.05 21.47 M32.22 164.06 C74.45 119.53, 112.36 70.33, 144.87 32.44 M31.56 165.78 C59.34 132.16, 85.35 102.18, 146.34 34.38 M42.4 178.79 C83.98 131.61, 121.96 88.08, 155.93 45.47 M41.76 176.85 C71.66 141.84, 103.28 108.25, 156.86 47.54 M53.43 189.81 C87.12 149.88, 122.64 112.66, 165.3 60.57 M54.19 188.79 C90.04 145.27, 127.9 103.34, 166.13 59.18 M62.46 201.23 C95.47 164.98, 131.47 126.52, 177.31 70.54 M64.59 202.44 C92.09 171.56, 117.97 139.62, 178.33 70.61 M73.16 215.19 C100.33 182.65, 129.21 148.8, 187.8 82.14 M74.58 213.18 C101.64 183.31, 127.33 153.3, 187.57 83.12 M87.5 225.02 C129.34 176.18, 170.92 122.11, 197.2 96.02 M85.32 224.89 C119.99 184.39, 155.81 145.17, 199.8 95.63 M95.63 238.44 C120.2 208.74, 143.35 180.82, 209.8 108.65 M96.06 236.82 C121.33 207.72, 147.12 177.84, 209.77 107.35 M107.63 250.76 C146 205.12, 183.85 161.57, 218.07 120.5 M107.72 249.53 C149.63 201.92, 191.65 153.43, 220.23 119.68" stroke="#ced4da" stroke-width="2" fill="none"/><path d="M112.78 -0.39 C138.61 26.7, 161.83 57.02, 226.08 130.19 M113.87 -0.46 C145.79 35.36, 175.64 72.18, 225.63 128.06 M223.94 128.93 C193.87 166.22, 160.56 200.22, 113.41 258.57 M226.53 128.84 C195.45 164.83, 164.92 198.68, 113.75 256.48 M113 257.13 C67.78 207.24, 23.09 156.24, -1.93 129.66 M113.83 255.92 C70.29 208.65, 27.1 159.55, 0.92 128.86 M-0.97 129.08 C45.01 75.77, 92.42 26.05, 114.39 0.26 M-0.45 128.58 C30.93 92.87, 61.7 58.37, 112.23 0.45" stroke="#000000" stroke-width="4" fill="none"/></g><g stroke-linecap="round" transform="translate(347.2000732421875 302.8000183105469) rotate(0 152.39996337890625 135.59999084472656)"><path d="M92.32 10.31 C105.06 3.08, 122.26 1.84, 137.97 0.55 C153.67 -0.75, 171.04 -0.6, 186.56 2.53 C202.08 5.66, 217.66 12.05, 231.07 19.34 C244.47 26.64, 256.66 35.97, 267.01 46.29 C277.36 56.62, 287.14 68.62, 293.19 81.28 C299.24 93.95, 302.09 108.19, 303.3 122.3 C304.52 136.41, 303.92 152.15, 300.47 165.95 C297.03 179.75, 290.59 193.18, 282.65 205.1 C274.71 217.02, 264.58 228.45, 252.85 237.49 C241.12 246.52, 226.69 253.93, 212.26 259.31 C197.83 264.7, 181.76 268.25, 166.28 269.79 C150.79 271.33, 134.58 271.51, 119.32 268.55 C104.07 265.58, 88.37 259.34, 74.76 252 C61.15 244.66, 48.01 235.09, 37.66 224.49 C27.32 213.88, 18.8 200.95, 12.71 188.37 C6.61 175.79, 2.44 162.63, 1.07 148.99 C-0.29 135.35, 1.28 120.22, 4.52 106.54 C7.75 92.85, 12.5 79.07, 20.5 66.87 C28.5 54.67, 38.85 43.18, 52.53 33.35 C66.21 23.52, 92.08 12.44, 102.58 7.89 C113.09 3.33, 114.51 4.1, 115.57 6.02 M200.84 6.56 C215.57 8.86, 229.58 18.43, 242.43 26.8 C255.27 35.17, 268.75 45.14, 277.92 56.77 C287.08 68.39, 292.84 82.94, 297.4 96.54 C301.95 110.13, 305.37 124.79, 305.26 138.34 C305.15 151.89, 301.82 164.56, 296.74 177.84 C291.66 191.11, 284.02 206.4, 274.8 217.98 C265.57 229.55, 254.01 239.51, 241.38 247.29 C228.76 255.08, 214.12 260.46, 199.04 264.69 C183.96 268.91, 167.05 272.96, 150.9 272.65 C134.75 272.34, 117.32 267.43, 102.14 262.84 C86.96 258.24, 72.12 253.1, 59.8 245.08 C47.48 237.06, 37.19 226.35, 28.21 214.72 C19.22 203.1, 10.74 188.98, 5.88 175.35 C1.02 161.71, -1.1 146.92, -0.96 132.92 C-0.81 118.91, 1.32 104.24, 6.75 91.33 C12.18 78.42, 21.87 66.74, 31.64 55.46 C41.41 44.17, 52.53 31.91, 65.36 23.61 C78.18 15.32, 93.86 9.49, 108.59 5.67 C123.31 1.85, 138.13 0.61, 153.69 0.69 C169.26 0.76, 194.22 4.8, 201.99 6.11 C209.76 7.42, 201.16 6.1, 200.3 8.53" stroke="none" stroke-width="0" fill="#4c6ef5"/><path d="M129.83 2.27 C144.3 -1.93, 161.02 -0.78, 176.35 1.29 C191.68 3.35, 207.88 8.09, 221.82 14.66 C235.75 21.23, 248.87 30.79, 259.95 40.69 C271.03 50.6, 281.15 61.81, 288.32 74.09 C295.49 86.38, 300.7 100.5, 302.99 114.42 C305.28 128.35, 304.54 143.93, 302.06 157.66 C299.58 171.38, 295.21 184.48, 288.12 196.77 C281.02 209.06, 270.77 221.46, 259.47 231.4 C248.17 241.34, 234.27 250.06, 220.32 256.4 C206.38 262.73, 191.21 267.26, 175.78 269.42 C160.35 271.58, 143.08 271.65, 127.74 269.37 C112.4 267.1, 97.57 262.17, 83.76 255.75 C69.95 249.32, 56.1 240.65, 44.88 230.84 C33.66 221.02, 23.58 209.34, 16.45 196.84 C9.31 184.34, 4.38 169.53, 2.07 155.83 C-0.24 142.13, 0.23 128.5, 2.59 114.65 C4.95 100.8, 9.01 85.36, 16.24 72.74 C23.46 60.12, 34.69 48.51, 45.93 38.95 C57.17 29.39, 68.69 21.64, 83.69 15.38 C98.68 9.11, 125.63 3.41, 135.9 1.36 C146.17 -0.69, 144.89 0.76, 145.31 3.06 M210.5 11.87 C225.19 15.02, 239.24 24.98, 251.1 33.94 C262.96 42.9, 273.31 53.99, 281.64 65.63 C289.98 77.27, 297.22 90.07, 301.09 103.77 C304.96 117.47, 306.49 133.91, 304.87 147.82 C303.25 161.72, 297.71 174.65, 291.35 187.19 C285 199.73, 276.92 212.14, 266.74 223.06 C256.56 233.98, 243.43 245.34, 230.27 252.69 C217.11 260.05, 202.88 264.03, 187.81 267.21 C172.73 270.38, 155.82 273.11, 139.81 271.76 C123.81 270.4, 106.07 264.63, 91.77 259.1 C77.47 253.57, 65.62 247.36, 54.03 238.58 C42.43 229.79, 30.52 218.6, 22.21 206.4 C13.89 194.19, 7.77 178.93, 4.13 165.36 C0.5 151.8, -1.17 138.88, 0.38 125 C1.92 111.11, 7.24 94.96, 13.4 82.06 C19.56 69.16, 27.33 58.2, 37.35 47.59 C47.37 36.98, 60.17 25.63, 73.51 18.4 C86.85 11.16, 102.07 7.39, 117.36 4.19 C132.65 0.98, 149.71 -1.69, 165.26 -0.82 C180.81 0.05, 203.34 7, 210.69 9.41 C218.04 11.83, 210.02 11.19, 209.37 13.67" stroke="#000000" stroke-width="4" fill="none"/></g></svg>